<svg xmlns="http://www.w3.org/2000/svg" viewBox="0 0 512 512" role="img" aria-labelledby="title desc">
  <title id="title">JasonQ avatar placeholder</title>
  <desc id="desc">A geometric avatar placeholder with the letters JQ.</desc>
  <rect width="512" height="512" fill="#f3e700"/>
  <path d="M64 96h384v320H64z" fill="#050505"/>
  <path d="M112 144h288v224H112z" fill="#ffffff"/>
  <path d="M152 178h76v114c0 50-27 78-77 78-13 0-27-2-40-7l12-55c8 3 16 4 24 4 22 0 32-11 32-35v-99h-27v-59Z" fill="#050505"/>
  <path d="M270 176c58 0 98 39 98 96 0 25-8 47-23 64l29 29-42 37-31-33c-10 3-21 5-33 5-58 0-98-39-98-97 0-59 41-101 100-101Zm0 60c-23 0-38 16-38 40 0 25 14 42 38 42 22 0 37-16 37-41 0-25-14-41-37-41Z" fill="#050505"/>
</svg>
