<svg xmlns="http://www.w3.org/2000/svg" viewBox="0 0 512 512" role="img" aria-labelledby="title desc">
  <title id="title">Skills</title>
  <desc id="desc">Brain and light bulb skill package icon</desc>
  <g fill="none" fill-rule="evenodd">
    <path fill="#D6DEEE" d="M139 184c8-59 55-103 112-103 55 0 99 45 99 101v171c0 25-19 45-43 45H153c-55 0-99-45-99-100 0-21 7-41 18-57-13-13-21-32-21-52 0-39 31-72 69-75 5-12 12-22 19-30Z" />
    <path fill="#CAD4E6" d="M303 97c29 17 48 49 48 85v171c0 25-20 45-44 45h-36c24 0 44-20 44-45V182c0-36-19-68-48-85 11-1 24-1 36 0Z" opacity=".75" />
    <path fill="#CAD4E6" d="M158 179c25 0 49 13 62 34a12 12 0 0 0 21-12 95 95 0 0 0-88-47c-14 1-26 5-37 11a74 74 0 0 0-14 68 12 12 0 0 0 23-8c-7-21 8-42 33-46Zm-12 87a12 12 0 1 0-7-23c-32 9-55 34-63 64 4 21 17 39 36 49 4-43 35-79 34-90Zm29 80a12 12 0 1 0-8-23c-27 10-45 34-45 62 0 7 1 14 3 21 13 7 28 11 44 11 2 0 5 0 8-1-20-22-20-56-2-70Z" />
    <path fill="#FFB22A" d="M275 87c111 8 191 101 191 211 0 56-22 109-62 149-29 29-47 68-47 109H250V135c0-27-1-50 25-48Z" />
    <path fill="#FFA018" d="M302 117c83 22 143 96 143 181 0 56-22 109-62 149-27 27-44 63-47 101h21c0-41 18-80 47-109 40-40 62-93 62-149 0-101-70-187-164-173Z" opacity=".65" />
    <path stroke="#F28B00" stroke-linecap="round" stroke-width="16" d="M296 126c61 21 102 78 102 143" />
    <rect width="184" height="38" x="137" y="393" fill="#48B9E8" rx="19" />
    <path fill="#159FCE" d="M303 393h3c10 0 19 9 19 19s-9 19-19 19H154c-9 0-17-6-19-15h149c10 0 19-9 19-19v-4Z" />
    <rect width="184" height="38" x="137" y="435" fill="#48B9E8" rx="19" />
    <path fill="#159FCE" d="M303 435h3c10 0 19 9 19 19s-9 19-19 19H154c-9 0-17-6-19-15h149c10 0 19-9 19-19v-4Z" />
    <path fill="#38AEDA" d="M174 473h110v8c0 19-15 34-34 34h-42c-19 0-34-15-34-34v-8Z" />
    <path fill="#168FBE" d="M264 473h20v8c0 19-15 34-34 34h-42c-10 0-19-4-25-11h47c19 0 34-15 34-34v3Z" opacity=".75" />
    <g stroke="#FFA018" stroke-linecap="round" stroke-width="17">
      <path d="M389 105 433 61" />
      <path d="M405 214h52" />
      <path d="M390 322 433 365" />
      <path d="M250 62V9" />
    </g>
  </g>
</svg>
